<svg width="25" height="25" viewBox="0 0 25 25" fill="none" xmlns="http://www.w3.org/2000/svg">
<path d="M5.36187 16.2233C7.54791 18.851 10.269 20.9824 13.3438 22.4754C14.7351 23.1856 16.2487 23.6252 17.804 23.7708H18.122C18.6614 23.787 19.1978 23.685 19.6936 23.4719C20.1894 23.2588 20.6326 22.9399 20.9921 22.5375C21.2766 22.2101 21.5796 21.8993 21.8997 21.6067C22.1169 21.3895 22.3418 21.1723 22.559 20.9473C22.801 20.7383 22.9958 20.4802 23.1306 20.1902C23.2653 19.9001 23.3369 19.5848 23.3405 19.265C23.3442 18.9453 23.2799 18.6284 23.1518 18.3353C23.0238 18.0423 22.8349 17.7798 22.5978 17.5653L19.751 14.7728C19.5439 14.5367 19.2902 14.3459 19.0059 14.2124C18.7216 14.0789 18.4127 14.0056 18.0988 13.9971C17.7832 14.0094 17.4733 14.0843 17.187 14.2174C16.9007 14.3506 16.6437 14.5394 16.431 14.7728L14.7555 16.456C14.6004 16.363 14.4453 16.2854 14.2901 16.2078C14.1144 16.1243 13.9435 16.0311 13.7782 15.9286C12.1619 14.8756 10.7287 13.5655 9.5351 12.0501C8.96333 11.3685 8.48348 10.6148 8.10783 9.80833C8.54221 9.40497 8.95333 8.99385 9.35669 8.58274L9.78333 8.14835C10.0186 7.93386 10.2084 7.67439 10.3416 7.38528C10.4749 7.09616 10.5488 6.78326 10.559 6.46509C10.5494 6.14567 10.4758 5.83143 10.3425 5.54097C10.2093 5.25051 10.0191 4.98974 9.78333 4.77407L8.38708 3.37782L7.9139 2.82708C7.60362 2.50904 7.27783 2.18325 6.9598 1.88849C6.74455 1.67093 6.48851 1.49797 6.20632 1.37951C5.92414 1.26105 5.62136 1.19941 5.31532 1.19812C4.68479 1.21075 4.08501 1.47298 3.64758 1.92727L1.89451 3.67259C1.2644 4.29077 0.883437 5.11896 0.82405 5.99967C0.759028 7.28151 0.981662 8.56166 1.47563 9.74628C2.38041 12.1199 3.69297 14.3171 5.35411 16.2388L5.36187 16.2233Z" stroke="white" stroke-width="1.39625" stroke-miterlimit="10" stroke-linecap="round" stroke-linejoin="round"/>
</svg>
