<svg width="21" height="25" viewBox="0 0 21 25" fill="none" xmlns="http://www.w3.org/2000/svg">
<path d="M7.24989 7.51354V3.81379C7.24894 3.39574 7.33081 2.98164 7.49079 2.59541C7.65076 2.20918 7.88567 1.85846 8.18194 1.56352C8.47821 1.26857 8.82997 1.03524 9.21692 0.877002C9.60387 0.71876 10.0183 0.638741 10.4364 0.641567C11.2777 0.641567 12.0846 0.975783 12.6795 1.57069C13.2744 2.1656 13.6086 2.97247 13.6086 3.81379V7.51354" stroke="white" stroke-width="1.28315" stroke-miterlimit="10" stroke-linecap="round" stroke-linejoin="round"/>
<path d="M16.8521 24.3584H4.02063C3.57125 24.3578 3.12684 24.2644 2.71522 24.084C2.30361 23.9037 1.93365 23.6404 1.62852 23.3105C1.32338 22.9806 1.08963 22.5912 0.941897 22.1668C0.794168 21.7424 0.735643 21.2921 0.769985 20.844L1.90343 6.2589C1.92494 6.00174 2.04251 5.76211 2.23274 5.58773C2.42297 5.41336 2.67189 5.31703 2.92995 5.31792H17.9428C18.2001 5.31716 18.4482 5.41373 18.6372 5.58826C18.8263 5.76278 18.9424 6.00235 18.9622 6.2589L20.0814 20.844C20.1167 21.2905 20.0595 21.7395 19.9134 22.1629C19.7674 22.5863 19.5356 22.9751 19.2326 23.3049C18.9295 23.6347 18.5617 23.8985 18.1521 24.0798C17.7426 24.261 17.3 24.3559 16.8521 24.3584Z" stroke="white" stroke-width="1.28315" stroke-miterlimit="10" stroke-linecap="round" stroke-linejoin="round"/>
</svg>
