<svg width="15" height="16" viewBox="0 0 15 16" fill="none" xmlns="http://www.w3.org/2000/svg">
<path d="M10.8333 8.64335H8.35678C7.89662 8.64335 7.52344 9.01653 7.52344 9.47668C7.52344 9.93684 7.89662 10.31 8.35678 10.31H10.8333C11.2935 10.31 11.6667 9.93684 11.6667 9.47668C11.6667 9.01653 11.2943 8.64335 10.8333 8.64335ZM14.1667 1.97668H8.35678C7.89662 1.97668 7.52344 2.34986 7.52344 2.81002C7.52344 3.27017 7.89662 3.64335 8.35678 3.64335H14.1667C14.6268 3.64335 15 3.27017 15 2.81002C15 2.34986 14.6276 1.97668 14.1667 1.97668ZM9.16667 11.9767H8.33334C7.87318 11.9767 7.50001 12.3499 7.50001 12.81C7.50001 13.2702 7.87318 13.6434 8.33334 13.6434H9.16667C9.62683 13.6434 9.97657 13.2702 9.97657 12.81C9.97657 12.3499 9.62761 11.9767 9.16667 11.9767ZM12.5 5.31002H8.35678C7.89662 5.31002 7.52344 5.68319 7.52344 6.14335C7.52344 6.60351 7.89662 6.97668 8.35678 6.97668H12.5C12.9602 6.97668 13.3333 6.60351 13.3333 6.14335C13.3333 5.68319 12.9609 5.31002 12.5 5.31002ZM5.01042 9.75533L4.16667 10.6772V2.8108C4.16667 2.34986 3.79428 1.97668 3.33334 1.97668C2.8724 1.97668 2.50001 2.34986 2.50001 2.8108V10.6754L1.65626 9.75533C1.49188 9.57609 1.26719 9.48502 1.04141 9.48502C0.840396 9.48502 0.638547 9.55744 0.478651 9.70413C0.139328 10.0153 0.116672 10.5432 0.427375 10.883L2.6956 13.3854C3.01123 13.7307 3.60863 13.7307 3.92451 13.3854L6.19274 10.883C6.50368 10.5432 6.48076 10.0156 6.14146 9.70413C5.84896 9.39335 5.32292 9.41679 5.01042 9.75533Z" fill="black"/>
</svg>
