<svg width="16" height="16" viewBox="0 0 16 16" fill="none" xmlns="http://www.w3.org/2000/svg">
<path d="M3.25666 6.97677C4.86864 6.97677 6.17333 5.67208 6.17333 4.0601C6.17333 2.44812 4.86864 1.14343 3.25666 1.14343C1.64468 1.14343 0.339996 2.44812 0.339996 4.0601C0.339996 5.67208 1.64468 6.97677 3.25666 6.97677ZM3.25666 2.8101C3.94677 2.8101 4.50666 3.37 4.50666 4.0601C4.50666 4.7502 3.94677 5.3101 3.25666 5.3101C2.56656 5.3101 2.00666 4.7502 2.00666 4.0601C2.00666 3.37 2.56656 2.8101 3.25666 2.8101ZM9.09 8.64343C7.47802 8.64343 6.17333 9.94812 6.17333 11.5601C6.17333 13.1721 7.47802 14.4768 9.09 14.4768C10.702 14.4768 12.0067 13.1721 12.0067 11.5601C12.0067 9.94812 10.702 8.64343 9.09 8.64343ZM9.09 12.8101C8.39989 12.8101 7.84 12.2502 7.84 11.5601C7.84 10.87 8.39989 10.3101 9.09 10.3101C9.7801 10.3101 10.34 10.87 10.34 11.5601C10.34 12.2502 9.7801 12.8101 9.09 12.8101ZM10.5561 1.14864L11.3791 1.14604C11.8843 1.14343 12.1837 1.71375 11.8921 2.13041L2.35562 14.2059C2.29812 14.2879 2.22172 14.3549 2.13287 14.4011C2.04403 14.4474 1.94536 14.4715 1.8452 14.4716L0.975413 14.4742C0.4676 14.4742 0.170726 13.9038 0.462392 13.4898L10.0457 1.41427C10.1629 1.2476 10.353 1.14864 10.5561 1.14864Z" fill="black"/>
</svg>
