<svg width="20" height="25" viewBox="0 0 20 25" fill="none" xmlns="http://www.w3.org/2000/svg">
<path d="M10.03 0.741104C7.68362 0.754172 5.43805 1.69656 3.78507 3.36189C2.13209 5.02722 1.20644 7.27974 1.21083 9.62615C1.21083 16.5843 9.19831 23.7731 9.5277 24.0695C9.66002 24.1916 9.83348 24.2594 10.0135 24.2594C10.1936 24.2594 10.367 24.1916 10.4994 24.0695C10.8452 23.7731 18.8327 16.5843 18.8327 9.62615C18.8371 7.28258 17.9137 5.03253 16.2643 3.36767C14.6149 1.70281 12.3735 0.758508 10.03 0.741104Z" stroke="white" stroke-width="1.48221" stroke-miterlimit="10" stroke-linecap="round" stroke-linejoin="round"/>
<path d="M10.03 13.4634C9.25802 13.4634 8.50339 13.2345 7.86151 12.8056C7.21964 12.3767 6.71936 11.7672 6.42394 11.0539C6.12852 10.3407 6.05123 9.55594 6.20183 8.7988C6.35244 8.04166 6.72418 7.34618 7.27004 6.80032C7.81591 6.25445 8.51139 5.88271 9.26853 5.7321C10.0257 5.5815 10.8105 5.6588 11.5237 5.95422C12.2369 6.24964 12.8465 6.74992 13.2754 7.39179C13.7042 8.03366 13.9332 8.7883 13.9332 9.56027C13.931 10.5948 13.5191 11.5863 12.7875 12.3178C12.056 13.0493 11.0645 13.4613 10.03 13.4634Z" stroke="white" stroke-width="1.48221" stroke-miterlimit="10" stroke-linecap="round" stroke-linejoin="round"/>
</svg>
