<svg width="42" height="25" viewBox="0 0 42 25" fill="none" xmlns="http://www.w3.org/2000/svg">
<path d="M7.64069 23.7271C9.17865 23.7271 10.4254 22.4803 10.4254 20.9424C10.4254 19.4044 9.17865 18.1576 7.64069 18.1576C6.10272 18.1576 4.85596 19.4044 4.85596 20.9424C4.85596 22.4803 6.10272 23.7271 7.64069 23.7271Z" stroke="white" stroke-width="1.67084" stroke-miterlimit="10" stroke-linecap="round" stroke-linejoin="round"/>
<path d="M23.5427 23.7271C25.0807 23.7271 26.3274 22.4803 26.3274 20.9424C26.3274 19.4044 25.0807 18.1576 23.5427 18.1576C22.0047 18.1576 20.758 19.4044 20.758 20.9424C20.758 22.4803 22.0047 23.7271 23.5427 23.7271Z" stroke="white" stroke-width="1.67084" stroke-miterlimit="10" stroke-linecap="round" stroke-linejoin="round"/>
<path d="M27.0891 20.9238H30.9227C31.2772 20.9238 31.6172 20.783 31.8679 20.5323C32.1185 20.2816 32.2594 19.9416 32.2594 19.5871V14.0177" stroke="white" stroke-width="1.67084" stroke-linecap="round" stroke-linejoin="round"/>
<path d="M25.7049 1.33788H14.2875C13.933 1.33788 13.593 1.4787 13.3423 1.72938C13.0917 1.98005 12.9508 2.32004 12.9508 2.67455V19.6057C12.9557 19.957 13.0987 20.2922 13.3488 20.5389C13.599 20.7856 13.9362 20.9238 14.2875 20.9238H20.1262" stroke="white" stroke-width="1.67084" stroke-linecap="round" stroke-linejoin="round"/>
<path d="M10.0631 5.99765H6.79566C6.38907 5.99789 5.98887 6.09891 5.63088 6.29167C5.27288 6.48444 4.96826 6.76294 4.74425 7.10226L1.76459 11.6414C1.49962 12.0468 1.36073 12.5216 1.36544 13.0059V19.0023C1.37276 19.5145 1.58136 20.0032 1.94613 20.3627C2.31091 20.7223 2.80255 20.9238 3.31475 20.9238H4.01093" stroke="white" stroke-width="1.67084" stroke-linecap="round" stroke-linejoin="round"/>
<path d="M32.2591 3.72346V2.67455C32.2591 2.32004 32.1183 1.98005 31.8676 1.72938C31.6169 1.4787 31.277 1.33788 30.9224 1.33788H23.8121" stroke="white" stroke-width="1.67084" stroke-linecap="round" stroke-linejoin="round"/>
<path d="M40.7438 6.97231H30.7652" stroke="white" stroke-width="1.67084" stroke-linecap="round" stroke-linejoin="round"/>
<path d="M38.1261 10.7595H30.7652" stroke="white" stroke-width="1.67084" stroke-linecap="round" stroke-linejoin="round"/>
<path d="M39.6024 15.6607H35.8709" stroke="white" stroke-width="1.67084" stroke-linecap="round" stroke-linejoin="round"/>
</svg>
