<svg width="16" height="16" viewBox="0 0 16 16" fill="none" xmlns="http://www.w3.org/2000/svg">
<path d="M7.73127 5.32043C7.80418 5.31262 7.8771 5.31002 7.95002 5.31002C9.33022 5.31002 10.45 6.40637 10.45 7.81002C10.45 9.19023 9.33022 10.31 7.95002 10.31C6.54637 10.31 5.45002 9.19023 5.45002 7.81002C5.45002 7.7371 5.45262 7.66418 5.46043 7.59127C5.70262 7.70846 5.98387 7.81002 6.28335 7.81002C7.20262 7.81002 7.95002 7.06262 7.95002 6.14335C7.95002 5.84387 7.84845 5.56262 7.73127 5.32043ZM12.9656 4.07564C14.1844 5.20585 14.9995 6.53658 15.3849 7.48971C15.4708 7.69543 15.4708 7.9246 15.3849 8.13033C14.9995 9.06002 14.1844 10.3907 12.9656 11.5444C11.7391 12.685 10.0542 13.6434 7.95002 13.6434C5.84585 13.6434 4.16095 12.685 2.93491 11.5444C1.71616 10.3907 0.901578 9.06002 0.514104 8.13033C0.428648 7.9246 0.428648 7.69543 0.514104 7.48971C0.901578 6.53658 1.71616 5.20585 2.93491 4.07564C4.16095 2.93606 5.84585 1.97668 7.95002 1.97668C10.0542 1.97668 11.7391 2.93606 12.9656 4.07564ZM7.95002 4.06002C5.8797 4.06002 4.20002 5.73971 4.20002 7.81002C4.20002 9.88033 5.8797 11.56 7.95002 11.56C10.0203 11.56 11.7 9.88033 11.7 7.81002C11.7 5.73971 10.0203 4.06002 7.95002 4.06002Z" fill="black"/>
</svg>
