<svg width="16" height="16" viewBox="0 0 16 16" fill="none" xmlns="http://www.w3.org/2000/svg">
<path d="M10.6711 4.7133L14.8823 5.3344C15.231 5.3842 15.5241 5.6303 15.6354 5.96721C15.7468 6.30705 15.6559 6.67619 15.4039 6.92815L12.3503 9.92229L13.0712 14.2172C13.1298 14.5688 12.9862 14.9262 12.6931 15.1342C12.403 15.3422 12.0191 15.3686 11.7056 15.2016L7.94272 13.1947L4.18281 15.2016C3.86631 15.3686 3.48241 15.3422 3.19229 15.1342C2.90216 14.9262 2.75563 14.5688 2.81717 14.2172L3.53809 9.92229L0.483867 6.92815C0.231546 6.67619 0.141871 6.30705 0.252646 5.96721C0.363128 5.6303 0.655304 5.3842 1.00668 5.3344L5.21437 4.7133L7.10165 0.836448C7.25697 0.513714 7.58519 0.308838 7.94272 0.308838C8.30318 0.308838 8.6314 0.513714 8.78672 0.836448L10.6711 4.7133Z" fill="#F59E0B"/>
</svg>
