<svg width="16" height="16" viewBox="0 0 16 16" fill="none" xmlns="http://www.w3.org/2000/svg">
<path d="M9.00332 6.97668H11.5033C11.9635 6.97668 12.3367 6.60351 12.3367 6.14335C12.3367 5.68319 11.9635 5.31002 11.5033 5.31002H9.02676C8.5666 5.31002 8.19343 5.68319 8.19343 6.14335C8.19343 6.60351 8.54238 6.97668 9.00332 6.97668ZM9.00332 10.31H13.17C13.6301 10.31 14.0033 9.93684 14.0033 9.47668C14.0033 9.01653 13.6301 8.64335 13.17 8.64335H9.02676C8.5666 8.64335 8.19343 9.01653 8.19343 9.47668C8.19343 9.93684 8.54238 10.31 9.00332 10.31ZM9.00332 3.64335H9.83666C10.2968 3.64335 10.6466 3.27017 10.6466 2.81002C10.6466 2.34986 10.2734 1.97668 9.83666 1.97668H9.00332C8.54317 1.97668 8.16999 2.34986 8.16999 2.81002C8.16999 3.27017 8.54238 3.64335 9.00332 3.64335ZM14.8367 11.9767H9.02676C8.5666 11.9767 8.19343 12.3499 8.19343 12.81C8.19343 13.2702 8.5666 13.6434 9.02676 13.6434H14.8367C15.2968 13.6434 15.67 13.2702 15.67 12.81C15.67 12.3499 15.2976 11.9767 14.8367 11.9767ZM5.6804 9.75533L4.83665 10.6772V2.8108C4.83665 2.34986 4.46426 1.97668 4.00332 1.97668C3.54238 1.97668 3.16999 2.34986 3.16999 2.8108V10.6754L2.32624 9.75533C2.16186 9.57609 1.93718 9.48502 1.71139 9.48502C1.51038 9.48502 1.30853 9.55744 1.14863 9.70413C0.809311 10.0153 0.786655 10.5432 1.09736 10.883L3.36559 13.3854C3.68121 13.7307 4.27861 13.7307 4.59449 13.3854L6.86272 10.883C7.17366 10.5432 7.15074 10.0156 6.81145 9.70413C6.51895 9.39335 5.9929 9.41679 5.6804 9.75533Z" fill="black"/>
</svg>
