<svg width="21" height="21" viewBox="0 0 21 21" fill="none" xmlns="http://www.w3.org/2000/svg">
<path d="M10.91 19.7343C16.137 19.7343 20.3743 15.497 20.3743 10.27C20.3743 5.04303 16.137 0.805725 10.91 0.805725C5.68304 0.805725 1.44574 5.04303 1.44574 10.27C1.44574 15.497 5.68304 19.7343 10.91 19.7343Z" stroke="white" stroke-width="1.07143" stroke-miterlimit="10" stroke-linecap="round" stroke-linejoin="round"/>
<path d="M10.91 11.8772C13.1783 11.8772 15.0171 10.0383 15.0171 7.77002C15.0171 5.5017 13.1783 3.66287 10.91 3.66287C8.64169 3.66287 6.80286 5.5017 6.80286 7.77002C6.80286 10.0383 8.64169 11.8772 10.91 11.8772Z" stroke="white" stroke-width="1.07143" stroke-miterlimit="10" stroke-linecap="round" stroke-linejoin="round"/>
<path d="M4.01074 16.7486C5.36396 12.9382 9.54967 10.9461 13.36 12.2993C14.3858 12.6635 15.3174 13.2519 16.087 14.0216C16.8567 14.7913 17.4451 15.7229 17.8093 16.7486" stroke="white" stroke-width="1.07143" stroke-miterlimit="10" stroke-linecap="round" stroke-linejoin="round"/>
</svg>
